<?xml version="1.0" standalone="no"?><!DOCTYPE svg PUBLIC "-//W3C//DTD SVG 1.1//EN" "http://www.w3.org/Graphics/SVG/1.1/DTD/svg11.dtd"><svg t="1757857868017" class="icon" viewBox="0 0 1024 1024" version="1.1" xmlns="http://www.w3.org/2000/svg" p-id="1486" xmlns:xlink="http://www.w3.org/1999/xlink" width="14" height="14"><path d="M511.392 63.904c-247.008 0-447.904 200.512-447.904 447.104s200.896 447.008 447.904 447.008c238.304 0 433.312-186.912 446.816-421.504a922.368 922.368 0 0 1-150.496 199.104c-44.8 58.592-105.888 104.096-177.312 128.096 18.208-35.104 32.192-78.208 43.2-125.696a1230.08 1230.08 0 0 1-71.2-78.016h-192.512a984.448 984.448 0 0 1-9.312-111.808h121.312a739.52 739.52 0 0 1-39.712-74.496h-81.696c1.312-40.192 4.192-77.6 9.312-111.808H444.8a375.072 375.072 0 0 1-8.192-74.496h-11.712c5.184-20.512 11.392-39.296 17.504-55.904a297.696 297.696 0 0 1 94.688-166.496c-8.608-0.416-17.088-1.088-25.696-1.088z m224 0c-123.2 0-224 100.608-224 223.488 0 36.992 14.304 74.688 32.704 116.384a1323.776 1323.776 0 0 0 65.312 126.912 2280.544 2280.544 0 0 0 95.712 150.208l30.304 44.192 30.304-44.192s48.096-68.384 95.712-150.208c23.808-40.896 47.008-85.088 65.312-126.912s32.704-79.488 32.704-116.384c-0.096-123.008-100.8-223.488-224-223.488z m0 74.496a148.768 148.768 0 0 1 149.312 148.992c0 14.4-8.992 48.512-25.696 86.208s-40.096 80.512-63.008 119.904c-30.496 52.384-43.616 71.008-60.704 96.608-17.088-25.6-30.208-44.192-60.704-96.608-22.912-39.392-46.4-82.208-63.008-119.904s-25.696-71.712-25.696-86.208a148.96 148.96 0 0 1 149.504-148.992z m-343.008 19.808c-18.688 35.904-33.184 80-44.288 129.184H213.984c44.896-59.488 106.304-105.088 178.4-129.184z m343.008 73.28a55.936 55.936 0 1 0 0 111.808 55.936 55.936 0 1 0 0-111.808zM169.6 361.888h165.6a1047.008 1047.008 0 0 0-9.312 111.808H140.48c3.904-39.488 13.792-76.992 29.088-111.808z m-29.088 186.304h185.504c1.184 38.016 4.384 75.488 9.312 111.808H169.632a367.136 367.136 0 0 1-29.088-111.808z m73.504 186.304h134.112c11.104 49.216 25.504 93.312 44.288 129.216a371.264 371.264 0 0 1-178.4-129.216z m211.072 0h172.608c-23.808 93.696-59.2 148.992-86.304 148.992s-62.688-55.296-86.304-148.992z" p-id="1487" fill="#1296db"></path></svg>